<svg width="810" height="810" viewBox="0 0 810 810" fill="none" xmlns="http://www.w3.org/2000/svg">
<rect x="0.416656" y="0.12915" width="808.91" height="808.91" rx="161.78" fill="#3D2B7D"/>
<g clip-path="url(#clip0_4268_12045)">
<path d="M352.766 421.636L337.706 406.576L406.863 337.418M352.766 421.636L406.863 337.418M352.766 421.636L337.706 406.576M352.766 421.636L337.706 406.576M406.863 337.418C414.088 330.193 423.888 326.134 434.106 326.134H647.022C668.3 326.134 685.549 343.383 685.549 364.662V577.577C685.549 587.795 681.49 597.595 674.265 604.82L605.108 673.978C597.882 681.203 588.083 685.262 577.864 685.262H364.949C343.671 685.262 326.421 668.013 326.421 646.734V433.819M406.863 337.418L326.421 433.819M337.706 406.576C330.48 413.801 326.421 423.601 326.421 433.819M337.706 406.576L326.421 433.819" stroke="#DFD8F3" stroke-width="45.3269"/>
</g>
<defs>
<clipPath id="clip0_4268_12045">
<rect width="404.455" height="404.455" fill="white" transform="translate(303.758 303.47)"/>
</clipPath>
</defs>
</svg>
