<svg width="490" height="193" viewBox="0 0 490 193" fill="none" xmlns="http://www.w3.org/2000/svg">
<path d="M151.081 118.602V53.1341C151.081 46.5914 145.778 41.2875 139.235 41.2875H73.7674C70.6255 41.2875 67.6123 42.5356 65.3906 44.7573L44.1261 66.0218C41.9044 68.2435 40.6563 71.2567 40.6563 74.3986V139.866C40.6563 146.409 45.9602 151.713 52.5029 151.713H117.97C121.112 151.713 124.125 150.465 126.347 148.243L147.612 126.978C149.833 124.757 151.081 121.743 151.081 118.602Z" stroke="white" stroke-width="13.9371"/>
<path d="M188.726 55.0044V120.295H203.65V55.0044H188.726Z" fill="white"/>
<path d="M241.73 72.3529C235.574 72.3529 230.91 74.5914 228.392 78.0425V73.6587H214.401V120.295H228.392V94.8314C228.392 88.2091 231.936 85.2244 237.066 85.2244C241.543 85.2244 245.181 87.9293 245.181 93.7121V120.295H259.172V91.6602C259.172 79.0685 251.15 72.3529 241.73 72.3529Z" fill="white"/>
<path d="M302.637 55.0044V78.0425C299.559 74.4982 294.989 72.3529 288.74 72.3529C276.521 72.3529 266.448 83.0792 266.448 96.9767C266.448 110.874 276.521 121.6 288.74 121.6C294.989 121.6 299.559 119.455 302.637 115.911V120.295H316.628V55.0044H302.637ZM291.538 108.356C285.102 108.356 280.438 103.972 280.438 96.9767C280.438 89.9813 285.102 85.5975 291.538 85.5975C297.973 85.5975 302.637 89.9813 302.637 96.9767C302.637 103.972 297.973 108.356 291.538 108.356Z" fill="white"/>
<path d="M333.887 69.5548C338.458 69.5548 342.282 65.7306 342.282 61.1603C342.282 56.59 338.458 52.7659 333.887 52.7659C329.317 52.7659 325.493 56.59 325.493 61.1603C325.493 65.7306 329.317 69.5548 333.887 69.5548ZM326.892 120.295H340.883V73.6587H326.892V120.295Z" fill="white"/>
<path d="M385.352 73.6587V78.4156C382.274 74.5914 377.797 72.3529 371.734 72.3529C358.489 72.3529 348.789 83.1724 348.789 96.0439C348.789 108.915 358.489 119.735 371.734 119.735C377.797 119.735 382.274 117.496 385.352 113.672V117.963C385.352 124.585 381.341 127.943 374.812 127.943C368.656 127.943 365.951 125.331 364.179 122.067L352.24 128.969C356.531 136.617 364.645 140.255 374.345 140.255C386.751 140.255 398.969 133.632 398.969 117.963V73.6587H385.352ZM374.066 106.863C367.443 106.863 362.78 102.48 362.78 96.0439C362.78 89.6082 367.443 85.2244 374.066 85.2244C380.688 85.2244 385.352 89.6082 385.352 96.0439C385.352 102.48 380.688 106.863 374.066 106.863Z" fill="white"/>
<path d="M431.619 121.6C445.33 121.6 456.336 110.874 456.336 96.9767C456.336 83.0792 445.33 72.3529 431.619 72.3529C417.908 72.3529 406.902 83.0792 406.902 96.9767C406.902 110.874 417.908 121.6 431.619 121.6ZM431.619 107.983C425.556 107.983 420.892 103.599 420.892 96.9767C420.892 90.3544 425.556 85.9706 431.619 85.9706C437.681 85.9706 442.345 90.3544 442.345 96.9767C442.345 103.599 437.681 107.983 431.619 107.983Z" fill="white"/>
</svg>
